<svg width="147" height="80" viewBox="0 0 147 80" fill="none" xmlns="http://www.w3.org/2000/svg">
<g clip-path="url(#clip0)">
<path d="M33.6593 1.91907V33.4264H27.2906V30.7913C25.6479 32.7676 23.2561 33.7701 20.1149 33.7701C17.9536 33.7701 15.994 33.2832 14.2361 32.338C12.4782 31.3641 11.1237 30.0179 10.1151 28.2134C9.10648 26.4375 8.61658 24.3752 8.61658 22.0265C8.61658 19.6778 9.10648 17.6155 10.1151 15.8396C11.1237 14.0637 12.4782 12.6889 14.2361 11.715C15.994 10.7411 17.9536 10.2828 20.1149 10.2828C23.0543 10.2828 25.3309 11.1994 27.0024 13.0326V1.91907H33.6593ZM25.4462 26.6094C26.5701 25.4636 27.1177 23.9169 27.1177 21.9978C27.1177 20.0788 26.5701 18.532 25.4462 17.3863C24.3511 16.2406 22.9391 15.6677 21.2676 15.6677C19.5674 15.6677 18.1553 16.2406 17.0314 17.3863C15.9075 18.532 15.36 20.0788 15.36 21.9978C15.36 23.9169 15.9075 25.4636 17.0314 26.6094C18.1553 27.7551 19.5386 28.328 21.2676 28.328C22.9391 28.328 24.3511 27.7551 25.4462 26.6094Z" fill="#ED6E1B"/>
<path d="M40.1433 6.33011C39.3652 5.61404 38.9906 4.75474 38.9906 3.69495C38.9906 2.63516 39.3652 1.77587 40.1433 1.05979C40.9214 0.343716 41.9012 0 43.1404 0C44.3795 0 45.3594 0.343716 46.1374 1.03115C46.9155 1.71858 47.2902 2.54923 47.2902 3.58038C47.2902 4.66882 46.9155 5.58539 46.1374 6.33011C45.3594 7.07483 44.3795 7.41855 43.1404 7.41855C41.9012 7.3899 40.9214 7.04619 40.1433 6.33011ZM39.7975 10.5693H46.4544V33.3978H39.7975V10.5693Z" fill="#9586E0"/>
<path d="M76.3674 10.5693V29.5883C76.3674 33.7702 75.2723 36.8923 73.0822 38.9259C70.892 40.9596 67.6932 41.9907 63.4858 41.9907C61.2669 41.9907 59.1631 41.7329 57.1747 41.1887C55.1863 40.6445 53.5437 39.8711 52.218 38.8686L54.8693 34.1139C55.8491 34.9159 57.0594 35.546 58.558 36.0043C60.0277 36.4626 61.5262 36.7204 62.9959 36.7204C65.3014 36.7204 67.0016 36.2048 68.0967 35.1737C69.1918 34.1425 69.7393 32.5672 69.7393 30.4762V29.5024C68.0102 31.3928 65.5895 32.338 62.4772 32.338C60.3735 32.338 58.4427 31.8797 56.6848 30.9631C54.9269 30.0466 53.5437 28.7576 52.535 27.0677C51.5264 25.3778 51.0077 23.4587 51.0077 21.2818C51.0077 19.1049 51.5264 17.1858 52.535 15.4959C53.5725 13.8346 54.9557 12.5457 56.6848 11.6005C58.4139 10.6552 60.3735 10.2256 62.4772 10.2256C65.8201 10.2256 68.3561 11.314 70.0851 13.4909V10.5693H76.3674ZM68.0967 25.3205C69.2206 24.2893 69.7969 22.9431 69.7969 21.2532C69.7969 19.5632 69.2206 18.217 68.0967 17.1858C66.9728 16.1547 65.5319 15.6391 63.774 15.6391C62.0161 15.6391 60.5464 16.1547 59.4225 17.1858C58.2986 18.217 57.7223 19.5632 57.7223 21.2532C57.7223 22.9431 58.2986 24.2893 59.4225 25.3205C60.5464 26.3516 62.0161 26.8672 63.774 26.8672C65.5319 26.8672 66.9728 26.3516 68.0967 25.3205Z" fill="#9586E0"/>
<path d="M82.9091 6.33011C82.131 5.61404 81.7563 4.75474 81.7563 3.69495C81.7563 2.63516 82.131 1.77587 82.9091 1.05979C83.6871 0.343716 84.6669 0 85.8773 0C87.0876 0 88.0963 0.343716 88.8743 1.03115C89.6524 1.71858 90.0271 2.54923 90.0271 3.58038C90.0271 4.66882 89.6524 5.58539 88.8743 6.33011C88.0963 7.07483 87.1165 7.41855 85.8773 7.41855C84.6669 7.3899 83.6583 7.04619 82.9091 6.33011ZM82.5632 10.5693H89.2202V33.3978H82.5632V10.5693Z" fill="#9586E0"/>
<path d="M110.228 32.3093C109.566 32.7962 108.759 33.14 107.808 33.3978C106.857 33.6555 105.848 33.7701 104.782 33.7701C102.044 33.7701 99.9405 33.0827 98.4419 31.6792C96.9434 30.2757 96.1941 28.2706 96.1941 25.5782V16.1833H92.6495V11.0848H96.1941V5.52808H102.88V11.0848H108.615V16.1833H102.88V25.4923C102.88 26.4661 103.139 27.1822 103.629 27.7264C104.119 28.242 104.839 28.4998 105.733 28.4998C106.77 28.4998 107.692 28.2134 108.413 27.6405L110.228 32.3093Z" fill="#9586E0"/>
<path d="M131.467 12.7462C133.369 14.4361 134.32 16.9853 134.32 20.3652V33.3978H128.095V30.5621C126.827 32.6817 124.493 33.7415 121.093 33.7415C119.335 33.7415 117.807 33.4551 116.511 32.8536C115.214 32.2521 114.234 31.4501 113.542 30.3903C112.851 29.3591 112.505 28.1561 112.505 26.8385C112.505 24.719 113.312 23.0577 114.926 21.826C116.54 20.5944 119.018 19.9929 122.39 19.9929H127.663C127.663 18.5607 127.231 17.4436 126.338 16.6703C125.444 15.8969 124.119 15.4959 122.361 15.4959C121.15 15.4959 119.94 15.6964 118.758 16.0688C117.577 16.4411 116.568 16.9567 115.733 17.6155L113.341 12.9753C114.609 12.0874 116.107 11.4286 117.836 10.9417C119.594 10.4547 121.381 10.2256 123.254 10.2256C126.799 10.2256 129.536 11.0849 131.467 12.7462ZM125.761 28.4998C126.655 27.9843 127.26 27.2109 127.634 26.1798V23.831H123.052C120.315 23.831 118.96 24.719 118.96 26.4948C118.96 27.3541 119.306 28.0129 119.969 28.4998C120.632 28.9868 121.554 29.2446 122.735 29.2446C123.888 29.3018 124.897 29.0441 125.761 28.4998Z" fill="#9586E0"/>
<path d="M140.343 1.91907H147V33.4264H140.343V1.91907Z" fill="#9586E0"/>
<path d="M6.22466 78.4819C4.26505 77.4794 2.7377 76.0759 1.64262 74.3C0.54754 72.5242 0 70.4905 0 68.2277C0 65.9649 0.54754 63.9313 1.64262 62.1554C2.7377 60.3795 4.26505 58.976 6.22466 57.9735C8.18428 56.971 10.3744 56.4554 12.824 56.4554C15.2447 56.4554 17.3484 56.971 19.1639 57.9735C20.9794 58.976 22.2762 60.4082 23.1119 62.27L17.9535 65.0197C16.7432 62.9288 15.0429 61.869 12.7951 61.869C11.0661 61.869 9.62517 62.4418 8.47246 63.5589C7.31974 64.676 6.7722 66.2227 6.7722 68.1704C6.7722 70.1182 7.34856 71.6649 8.47246 72.782C9.62517 73.899 11.0372 74.4719 12.7951 74.4719C15.0718 74.4719 16.8008 73.4408 17.9535 71.3212L23.1119 74.1282C22.2762 75.9327 20.9794 77.3649 19.1639 78.3674C17.3484 79.3985 15.2447 79.8854 12.824 79.8854C10.3744 80 8.15546 79.4844 6.22466 78.4819Z" fill="#9586E0"/>
<path d="M50.0855 56.8278V79.6564H43.7744V76.9353C42.881 77.9378 41.8436 78.6825 40.6044 79.1981C39.3653 79.7136 38.0684 79.9714 36.6276 79.9714C33.6017 79.9714 31.2098 79.1121 29.4519 77.3936C27.694 75.675 26.8007 73.0971 26.8007 69.7172V56.7992H33.4576V68.7433C33.4576 72.4097 35.0138 74.2715 38.0973 74.2715C39.6822 74.2715 40.9791 73.7559 41.93 72.7247C42.9099 71.6936 43.3709 70.1469 43.3709 68.1132V56.8278H50.0855Z" fill="#ED6E1B"/>
<path d="M75.7046 57.9449C77.4625 58.9188 78.8169 60.2936 79.8256 62.0695C80.8342 63.8454 81.3241 65.9077 81.3241 68.2564C81.3241 70.6051 80.8342 72.6674 79.8256 74.4433C78.8169 76.2191 77.4625 77.594 75.7046 78.5679C73.9467 79.5417 72.0159 80.0287 69.8834 80.0287C66.7134 80.0287 64.3216 79.0262 62.6501 77.0498V79.685H56.2814V48.1776H62.9383V59.2625C64.6097 57.4293 66.9152 56.5127 69.8546 56.5127C72.0159 56.4841 73.9467 56.971 75.7046 57.9449ZM72.9381 72.8393C74.0332 71.6935 74.5807 70.1468 74.5807 68.2277C74.5807 66.3087 74.0332 64.7619 72.9381 63.6162C71.843 62.4705 70.4309 61.8976 68.7307 61.8976C67.0304 61.8976 65.6184 62.4705 64.5233 63.6162C63.4282 64.7619 62.8807 66.3087 62.8807 68.2277C62.8807 70.1468 63.4282 71.6935 64.5233 72.8393C65.6184 73.985 67.0304 74.5578 68.7307 74.5578C70.4309 74.5578 71.8142 73.985 72.9381 72.8393Z" fill="#9586E0"/>
<path d="M108.125 70.0895H90.7475C91.0645 71.493 91.785 72.6101 92.9665 73.4407C94.1192 74.2714 95.5889 74.6724 97.318 74.6724C98.4995 74.6724 99.5658 74.5005 100.488 74.1282C101.41 73.7844 102.275 73.2116 103.082 72.4669L106.626 76.2764C104.465 78.7397 101.295 79.9713 97.1451 79.9713C94.5515 79.9713 92.2461 79.4558 90.2576 78.4533C88.2692 77.4507 86.7418 76.0472 85.6468 74.2714C84.5517 72.4955 84.033 70.4618 84.033 68.199C84.033 65.9649 84.5805 63.9599 85.6468 62.1554C86.713 60.3509 88.1827 58.9473 90.0559 57.9448C91.9291 56.9423 94.004 56.4268 96.3094 56.4268C98.5572 56.4268 100.603 56.9137 102.419 57.8589C104.234 58.8041 105.675 60.2076 106.713 61.9835C107.75 63.788 108.269 65.879 108.269 68.2563C108.269 68.3995 108.211 69.001 108.125 70.0895ZM92.5631 62.7569C91.5256 63.6162 90.9204 64.7619 90.6899 66.2227H102.015C101.785 64.7905 101.151 63.6162 100.142 62.7569C99.1047 61.8976 97.8655 61.4679 96.3958 61.4679C94.8397 61.4966 93.5717 61.8976 92.5631 62.7569Z" fill="#9586E0"/>
<path d="M33.5152 2.17688H26.9159V59.4343H33.5152V2.17688Z" fill="#ED6E1B"/>
<path d="M126.193 49.7244H125.214V50.6982H126.193V49.7244Z" fill="#9586E0"/>
<path d="M127.173 49.7244H126.193V50.6982H127.173V49.7244Z" fill="#9586E0"/>
<path d="M129.133 49.7244H128.153V50.6982H129.133V49.7244Z" fill="#9586E0"/>
<path d="M131.064 50.6982V49.7244H130.084H129.133V50.6982H130.084H131.064Z" fill="#9586E0"/>
<path d="M133.023 49.7244H132.043V50.6982H133.023V49.7244Z" fill="#9586E0"/>
<path d="M134.983 49.7244H134.003V50.6982H134.983V49.7244Z" fill="#9586E0"/>
<path d="M136.943 49.7244H135.963V50.6982H136.943V49.7244Z" fill="#9586E0"/>
<path d="M129.133 50.6981H128.153V51.672H129.133V50.6981Z" fill="#9586E0"/>
<path d="M135.963 51.672V50.6981H134.983H134.003H133.023V51.672H134.003V52.6458H134.983V51.672H135.963Z" fill="#9586E0"/>
<path d="M126.193 51.672V50.6981H125.214V51.672V52.6458H126.193V51.672Z" fill="#9586E0"/>
<path d="M128.153 52.6459V51.672H127.173H126.193V52.6459V53.6197V54.5936H127.173H128.153V53.6197H127.173V52.6459H128.153Z" fill="#9586E0"/>
<path d="M133.023 51.672V50.6981H132.044H131.064V51.672H132.044V52.6458H133.023V51.672Z" fill="#9586E0"/>
<path d="M136.943 51.672V50.6981H135.963V51.672V52.6458H134.983V53.6197V54.5936H135.963V53.6197V52.6458H136.943V51.672Z" fill="#9586E0"/>
<path d="M133.023 53.6197V54.5936H134.003V53.6197V52.6459H133.023V53.6197Z" fill="#9586E0"/>
<path d="M125.214 53.6198H124.234V54.5936H125.214V53.6198Z" fill="#9586E0"/>
<path d="M129.104 53.6197V52.6459H128.153V53.6197V54.5936H129.104V53.6197Z" fill="#9586E0"/>
<path d="M129.133 54.5936H130.084H131.064V53.6198H130.084H129.133V54.5936Z" fill="#9586E0"/>
<path d="M133.023 53.6198H132.043V54.5936H133.023V53.6198Z" fill="#9586E0"/>
<path d="M129.133 54.5936H128.153V55.5675H129.133V54.5936Z" fill="#9586E0"/>
<path d="M133.023 55.5675V54.5936H132.044H131.064V55.5675H130.084V54.5936H129.133V55.5675H130.084V56.5414H129.133V57.5152V58.4891H130.084V57.5152H131.064H132.044V56.5414H131.064V55.5675H132.044H133.023Z" fill="#9586E0"/>
<path d="M125.214 55.5675H124.234V56.5414V57.5152H123.254H122.274V58.4891H123.254H124.234H125.214V57.5152V56.5414V55.5675Z" fill="#9586E0"/>
<path d="M127.173 55.5675H126.193V56.5414H127.173V55.5675Z" fill="#9586E0"/>
<path d="M133.023 55.5675H132.043V56.5414H133.023V55.5675Z" fill="#9586E0"/>
<path d="M135.963 56.5414H134.983V55.5675H135.963V54.5936H134.983V55.5675H134.003V56.5414H133.023V57.5152H134.003H134.983V58.4891H135.963V57.5152V56.5414Z" fill="#9586E0"/>
<path d="M136.943 56.5414V55.5675H135.963V56.5414V57.5152H136.943V56.5414Z" fill="#9586E0"/>
<path d="M120.315 58.4891V57.5153H119.335H118.355V58.4891H119.335H120.315Z" fill="#9586E0"/>
<path d="M126.193 57.5153H125.214V58.4891H126.193V57.5153Z" fill="#9586E0"/>
<path d="M129.104 57.5152V56.5414V55.5675H128.153V56.5414V57.5152V58.4891H129.104V57.5152Z" fill="#9586E0"/>
<path d="M138.902 58.4891V57.5153H137.922H136.943V58.4891H137.922H138.902Z" fill="#9586E0"/>
<path d="M140.862 57.5153H139.882V58.4891H140.862V57.5153Z" fill="#9586E0"/>
<path d="M117.375 58.4891H116.395V59.463H117.375V58.4891Z" fill="#9586E0"/>
<path d="M120.315 58.4891H119.335H118.355V59.463V60.4369H119.335H120.315V59.463V58.4891Z" fill="#9586E0"/>
<path d="M126.193 58.4891H125.214V59.463H126.193V58.4891Z" fill="#9586E0"/>
<path d="M132.043 59.463V58.4891H131.064H130.084V59.463H131.064H132.043Z" fill="#9586E0"/>
<path d="M134.003 58.4891H133.023V59.463H134.003V58.4891Z" fill="#9586E0"/>
<path d="M138.902 59.463V58.4891H137.922H136.943V59.463V60.4369V61.4107V62.3846H137.922V61.4107V60.4369H138.902V59.463Z" fill="#9586E0"/>
<path d="M140.862 58.4891H139.882V59.463H140.862V58.4891Z" fill="#9586E0"/>
<path d="M140.862 59.463V60.4369H141.842V59.463V58.4891H140.862V59.463Z" fill="#9586E0"/>
<path d="M144.781 58.4891H143.801V59.463H144.781V58.4891Z" fill="#9586E0"/>
<path d="M123.254 59.463H122.274V60.4369H123.254V59.463Z" fill="#9586E0"/>
<path d="M125.214 59.463V58.4891H124.234V59.463V60.4369V61.4107H125.214V60.4369V59.463Z" fill="#9586E0"/>
<path d="M138.902 59.463V60.4369V61.4107H139.882H140.862V60.4369H139.882V59.463H138.902Z" fill="#9586E0"/>
<path d="M143.801 59.463H142.821V60.4369H143.801V59.463Z" fill="#9586E0"/>
<path d="M117.375 60.4368H116.395V61.4106H117.375V60.4368Z" fill="#9586E0"/>
<path d="M129.104 60.4369V59.463H128.153V60.4369V61.4107H129.104V60.4369Z" fill="#9586E0"/>
<path d="M134.983 60.4368H134.003V61.4106H134.983V60.4368Z" fill="#9586E0"/>
<path d="M136.943 60.4368H135.963V61.4106H134.983V62.3845H135.963V61.4106H136.943V60.4368Z" fill="#9586E0"/>
<path d="M118.355 61.4106H117.375V62.3845H118.355V61.4106Z" fill="#9586E0"/>
<path d="M118.355 61.4106V62.3845H119.335H120.315V61.4106H119.335H118.355Z" fill="#9586E0"/>
<path d="M122.274 61.4107V60.4369V59.463H121.294V60.4369H120.315V61.4107H121.294V62.3846H122.274V61.4107Z" fill="#9586E0"/>
<path d="M123.254 61.4106H122.274V62.3845H123.254V61.4106Z" fill="#9586E0"/>
<path d="M125.214 61.4106V62.3845H126.193V61.4106V60.4368H125.214V61.4106Z" fill="#9586E0"/>
<path d="M128.153 61.4107V60.4369V59.463H127.173V60.4369V61.4107V62.3846H128.153V61.4107Z" fill="#9586E0"/>
<path d="M133.023 61.4106V60.4368H132.044V61.4106H131.064V60.4368H130.084H129.133V61.4106V62.3845H130.084H131.064H132.044H133.023V61.4106Z" fill="#9586E0"/>
<path d="M134.003 61.4106H133.023V62.3845H134.003V61.4106Z" fill="#9586E0"/>
<path d="M142.821 61.4106H141.842V62.3845H142.821V61.4106Z" fill="#9586E0"/>
<path d="M143.801 61.4106H142.821V62.3845H143.801V61.4106Z" fill="#9586E0"/>
<path d="M144.781 61.4106V60.4368H143.801V61.4106V62.3845H144.781V61.4106Z" fill="#9586E0"/>
<path d="M118.355 62.3845H117.375V63.3584H118.355V62.3845Z" fill="#9586E0"/>
<path d="M125.214 62.3845H124.234V63.3584H125.214V62.3845Z" fill="#9586E0"/>
<path d="M128.153 62.3845H127.173V63.3584H126.193V64.3322V65.3061H127.173V64.3322V63.3584H128.153V62.3845Z" fill="#9586E0"/>
<path d="M133.023 63.3584V62.3845H132.044V63.3584H131.064H130.084H129.133V64.3322H130.084H131.064V65.3061H132.044H133.023V64.3322H132.044V63.3584H133.023Z" fill="#9586E0"/>
<path d="M137.922 63.3584H136.943V64.3322V65.3061H137.922H138.902V64.3322H137.922V63.3584H138.902V62.3845H137.922V63.3584Z" fill="#9586E0"/>
<path d="M142.821 63.3584V62.3845H141.842H140.862V63.3584H141.842H142.821Z" fill="#9586E0"/>
<path d="M144.781 62.3845H143.801V63.3584H144.781V62.3845Z" fill="#9586E0"/>
<path d="M116.395 63.3584V64.3323H117.375H118.355V63.3584H117.375H116.395Z" fill="#9586E0"/>
<path d="M123.254 63.3584H122.274V64.3323H123.254V63.3584Z" fill="#9586E0"/>
<path d="M129.133 63.3584H128.153V64.3323H129.133V63.3584Z" fill="#9586E0"/>
<path d="M134.983 63.3584H134.003V64.3323H134.983H135.963V63.3584H134.983Z" fill="#9586E0"/>
<path d="M140.862 63.3584H139.882V62.3845H138.902V63.3584H139.882V64.3322H140.862V63.3584Z" fill="#9586E0"/>
<path d="M140.862 64.3323V65.3061H141.842V64.3323V63.3584H140.862V64.3323Z" fill="#9586E0"/>
<path d="M143.801 63.3584H142.821V64.3323H143.801V63.3584Z" fill="#9586E0"/>
<path d="M144.781 63.3584H143.801V64.3323H144.781V63.3584Z" fill="#9586E0"/>
<path d="M122.274 64.3322V63.3584H121.294V62.3845H120.315H119.335V63.3584H120.315H121.294V64.3322V65.3061H122.274V64.3322Z" fill="#9586E0"/>
<path d="M123.254 64.3323V65.3061H124.234H125.214V64.3323H124.234H123.254Z" fill="#9586E0"/>
<path d="M136.943 64.3322V63.3584H135.963V62.3845H134.983H134.003H133.023V63.3584H134.003H134.983H135.963V64.3322V65.3061H136.943V64.3322Z" fill="#9586E0"/>
<path d="M125.214 65.3062H124.234V66.28H125.214V65.3062Z" fill="#9586E0"/>
<path d="M128.153 65.3062H127.173V66.28H128.153V65.3062Z" fill="#9586E0"/>
<path d="M130.113 65.3062H129.133V66.28H130.113V65.3062Z" fill="#9586E0"/>
<path d="M134.983 66.28V65.3062H134.003H133.023V66.28H134.003H134.983Z" fill="#9586E0"/>
<path d="M136.943 65.3062H135.963V66.28H136.943V65.3062Z" fill="#9586E0"/>
<path d="M137.922 65.3062H136.943V66.28H137.922V65.3062Z" fill="#9586E0"/>
<path d="M140.862 65.3062H139.882H138.902V66.28H139.882H140.862V65.3062Z" fill="#9586E0"/>
<path d="M141.842 65.3062H140.862V66.28H141.842V65.3062Z" fill="#9586E0"/>
<path d="M144.781 65.3062H143.801V66.28H144.781V65.3062Z" fill="#9586E0"/>
<path d="M120.315 67.2539V66.28H121.294H122.274V65.3062H121.294H120.315V66.28H119.335H118.355V67.2539V68.1991V69.173H119.335H120.315V68.1991H119.335V67.2539H120.315Z" fill="#9586E0"/>
<path d="M128.153 66.2799H127.173V67.2538H128.153V66.2799Z" fill="#9586E0"/>
<path d="M132.044 66.2799H131.064V67.2538H132.044V66.2799Z" fill="#9586E0"/>
<path d="M137.922 66.2799H136.943V67.2538H137.922V66.2799Z" fill="#9586E0"/>
<path d="M138.902 66.2799V67.2538V68.199V69.1729H139.882V68.199H140.862V67.2538H139.882V66.2799H138.902Z" fill="#9586E0"/>
<path d="M140.862 66.2799V67.2538V68.199V69.1729H141.842H142.821V68.199H141.842V67.2538H142.821V66.2799H141.842H140.862Z" fill="#9586E0"/>
<path d="M117.375 67.2539H116.395V68.2278H117.375V67.2539Z" fill="#9586E0"/>
<path d="M123.254 67.2539H122.274V68.2278H123.254V67.2539Z" fill="#9586E0"/>
<path d="M126.194 67.2539H125.214V66.28H124.234H123.254V65.3062H122.274V66.28H123.254V67.2539H124.234H125.214V68.1991H126.194V67.2539Z" fill="#9586E0"/>
<path d="M126.193 67.2539V68.1991V69.173H127.173H128.153V68.1991H127.173V67.2539H126.193Z" fill="#9586E0"/>
<path d="M129.133 68.1991V69.173H130.084H131.064V68.1991H130.084V67.2539H129.133V68.1991Z" fill="#9586E0"/>
<path d="M133.023 67.2538V68.199V69.1729H134.003H134.983V68.199V67.2538V66.2799H134.003V67.2538H133.023Z" fill="#9586E0"/>
<path d="M136.943 67.2539H135.963V68.2278H136.943V67.2539Z" fill="#9586E0"/>
<path d="M137.922 68.1991H136.943V69.173H137.922H138.902V68.1991V67.2539H137.922V68.1991Z" fill="#9586E0"/>
<path d="M124.234 68.1991H123.254V69.173H124.234V68.1991Z" fill="#9586E0"/>
<path d="M129.104 68.1991V67.2539H128.153V68.1991V69.173H129.104V68.1991Z" fill="#9586E0"/>
<path d="M144.781 68.1991H143.801V69.173H144.781V68.1991Z" fill="#9586E0"/>
<path d="M118.355 69.2017H117.375V70.1755H118.355V69.2017Z" fill="#9586E0"/>
<path d="M123.254 69.2017H122.274V70.1755H123.254V69.2017Z" fill="#9586E0"/>
<path d="M125.214 70.1469V69.2017H124.234V70.1469V71.1207H125.214V70.1469Z" fill="#9586E0"/>
<path d="M128.153 69.2017H127.173V70.1755H128.153V69.2017Z" fill="#9586E0"/>
<path d="M133.023 70.1469H134.003H134.983V71.1207H135.963V70.1469V69.2017H134.983H134.003H133.023V70.1469Z" fill="#9586E0"/>
<path d="M136.943 69.2017H135.963V70.1469V71.1207H136.943V70.1469V69.2017Z" fill="#9586E0"/>
<path d="M136.943 69.2017V70.1469H137.922H138.902V69.2017H137.922H136.943Z" fill="#9586E0"/>
<path d="M140.862 69.2017H139.882H138.902V70.1469H139.882V71.1207H140.862V70.1469V69.2017Z" fill="#9586E0"/>
<path d="M142.821 69.2017H141.842V70.1755H142.821V69.2017Z" fill="#9586E0"/>
<path d="M126.194 70.1469H125.214V71.1207H124.234V72.0946H125.214V71.1207H126.194V70.1469Z" fill="#9586E0"/>
<path d="M129.133 70.1469H128.153V71.1207H129.133V70.1469Z" fill="#9586E0"/>
<path d="M143.801 71.1207V70.1469V69.2017H142.821V70.1469V71.1207H141.842V70.1469H140.862V71.1207H141.842V72.0946H142.821V71.1207H143.801Z" fill="#9586E0"/>
<path d="M144.781 70.1469V69.2017H143.801V70.1469V71.1207H144.781V70.1469Z" fill="#9586E0"/>
<path d="M135.963 71.1206H134.983V72.0945H135.963V71.1206Z" fill="#9586E0"/>
<path d="M138.902 71.1206H137.922V72.0945H138.902V71.1206Z" fill="#9586E0"/>
<path d="M143.801 71.1206H142.821V72.0945H143.801V71.1206Z" fill="#9586E0"/>
<path d="M127.173 72.0946H126.193V73.0685H127.173V72.0946Z" fill="#9586E0"/>
<path d="M129.104 72.0945V71.1206H128.153V72.0945V73.0683H129.104V72.0945Z" fill="#9586E0"/>
<path d="M130.113 72.0946H129.133V73.0685H130.113V72.0946Z" fill="#9586E0"/>
<path d="M133.023 72.0946V71.1207H132.044V70.1469V69.2017H131.064H130.084H129.133V70.1469H130.084H131.064V71.1207H132.044V72.0946V73.0685H133.023V72.0946Z" fill="#9586E0"/>
<path d="M134.003 72.0946H133.023V73.0685H134.003V72.0946Z" fill="#9586E0"/>
<path d="M136.943 72.0945V71.1206H135.963V72.0945V73.0683H136.943V72.0945Z" fill="#9586E0"/>
<path d="M140.862 72.0945V71.1206H139.882V72.0945V73.0683H140.862V72.0945Z" fill="#9586E0"/>
<path d="M144.781 72.0946H143.801V73.0685H144.781V72.0946Z" fill="#9586E0"/>
<path d="M128.153 73.0684H127.173V74.0422H128.153V73.0684Z" fill="#9586E0"/>
<path d="M129.133 73.0684H128.153V74.0422H129.133V73.0684Z" fill="#9586E0"/>
<path d="M129.133 74.0422H130.084H131.064H132.044V73.0684H131.064H130.084H129.133V74.0422Z" fill="#9586E0"/>
<path d="M134.983 73.0684H134.003V74.0422H134.983V73.0684Z" fill="#9586E0"/>
<path d="M136.943 73.0684H135.963V74.0422H136.943V73.0684Z" fill="#9586E0"/>
<path d="M136.943 74.0422H137.922H138.902V73.0684H137.922H136.943V74.0422Z" fill="#9586E0"/>
<path d="M140.862 73.0684H139.882H138.902V74.0422H139.882H140.862V73.0684Z" fill="#9586E0"/>
<path d="M142.821 74.0422V73.0684H141.842H140.862V74.0422H141.842H142.821Z" fill="#9586E0"/>
<path d="M126.193 74.0422H125.214V75.0161H126.193V74.0422Z" fill="#9586E0"/>
<path d="M128.153 74.0422H127.173V75.0161H128.153V74.0422Z" fill="#9586E0"/>
<path d="M131.064 74.0422H130.084H129.133V75.0161V75.99H130.084H131.064H132.044V75.0161H131.064V74.0422Z" fill="#9586E0"/>
<path d="M133.023 74.0422H132.043V75.0161H133.023V74.0422Z" fill="#9586E0"/>
<path d="M135.963 74.0422H134.983V75.0161H134.003V74.0422H133.023V75.0161V75.99V76.9638H134.003V75.99H134.983V76.9638H135.963V75.99V75.0161V74.0422Z" fill="#9586E0"/>
<path d="M137.922 74.0422H136.943V75.0161H137.922V74.0422Z" fill="#9586E0"/>
<path d="M140.862 74.0422H139.882V75.0161H140.862V74.0422Z" fill="#9586E0"/>
<path d="M140.862 75.0161V75.99V76.9638H141.842V75.99V75.0161H142.821V74.0422H141.842H140.862V75.0161Z" fill="#9586E0"/>
<path d="M143.801 74.0422H142.821V75.0161H143.801V74.0422Z" fill="#9586E0"/>
<path d="M125.214 75.0161V74.0422H124.234V75.0161V75.99H125.214V76.9638H126.194V75.99H125.214V75.0161Z" fill="#9586E0"/>
<path d="M144.781 75.0161H143.801V75.99H144.781V75.0161Z" fill="#9586E0"/>
<path d="M126.193 76.9639H127.173H128.153V75.99H127.173H126.193V76.9639Z" fill="#9586E0"/>
<path d="M129.133 75.99H128.153V76.9639H129.133V75.99Z" fill="#9586E0"/>
<path d="M136.943 75.99H135.963V76.9639H136.943V75.99Z" fill="#9586E0"/>
<path d="M137.922 75.99H136.943V76.9639H137.922V75.99Z" fill="#9586E0"/>
<path d="M140.862 75.99H139.882V76.9639H140.862V75.99Z" fill="#9586E0"/>
<path d="M143.801 75.99H142.821V76.9639H143.801V75.99Z" fill="#9586E0"/>
<path d="M129.133 76.9639H128.153V77.9377H129.133V76.9639Z" fill="#9586E0"/>
<path d="M131.064 76.9639H130.084H129.133V77.9377H130.084H131.064H132.044H133.023V76.9639H132.044H131.064Z" fill="#9586E0"/>
<path d="M134.003 76.9639H133.023V77.9377H134.003H134.983H135.963V76.9639H134.983H134.003Z" fill="#9586E0"/>
<path d="M136.943 76.9639H135.963V77.9377H136.943V76.9639Z" fill="#9586E0"/>
<path d="M138.902 76.9639H137.922V77.9377H138.902V76.9639Z" fill="#9586E0"/>
<path d="M139.882 76.9639H138.902V77.9377H139.882V76.9639Z" fill="#9586E0"/>
<path d="M143.801 76.9639H142.821V77.9377H143.801V76.9639Z" fill="#9586E0"/>
<path d="M123.254 55.5102V50.7268V49.6957H122.217H117.404H116.367V50.7268V55.5102V56.5414H117.404H122.217H123.254V55.5102ZM121.294 54.5936H118.355V51.672H121.294V54.5936Z" fill="#9586E0"/>
<path d="M144.781 55.5102V50.7268V49.6957H143.744H138.931H137.894V50.7268V55.5102V56.5414H138.931H143.744H144.781V55.5102ZM138.931 55.5102V50.7268V55.5102ZM142.821 54.5936H139.882V51.672H142.821V54.5936ZM143.772 55.5102V50.7268V55.5102Z" fill="#9586E0"/>
<path d="M116.395 72.1518V76.9351V77.9663H117.433H122.245H123.283V76.9351V72.1518V71.1206H122.245H117.433H116.395V72.1518ZM117.404 72.1518H122.217H117.404ZM121.294 73.0683V75.9899H118.355V73.0683H121.294ZM117.404 76.9065H122.217H117.404Z" fill="#9586E0"/>
</g>
<defs>
<clipPath id="clip0">
<rect width="147" height="80" fill="white"/>
</clipPath>
</defs>
</svg>
