<svg width="16" height="16" viewBox="0 0 16 16" fill="none" xmlns="http://www.w3.org/2000/svg">
<g clip-path="url(#clip0)">
<path d="M15.7734 1.92287C15.5256 1.55443 15.1109 1.3335 14.6669 1.3335H1.33344C0.596875 1.3335 0 1.93037 0 2.66662V13.3332C0 14.0694 0.596875 14.6666 1.33344 14.6666H14.6669H14.7734H14.8053C15.4872 14.5954 16.0037 14.0188 16 13.3332V2.66662C16 2.40162 15.9213 2.14256 15.7734 1.92287ZM1.33344 1.86662H14.6669C14.8562 1.86662 15.0397 1.9335 15.1841 2.056L14.1494 3.04256L9.78656 7.20006L8.17062 8.74131C8.07625 8.811 7.9475 8.811 7.85344 8.74131L6.21344 7.20006L0.8 2.05881C0.948438 1.93162 1.13812 1.8635 1.33344 1.86662ZM0.533437 2.53881L5.64281 7.38693L0.533437 12.2666V2.66662C0.53 2.62412 0.53 2.58131 0.533437 2.53881ZM15.4666 13.3335C15.4697 13.7385 15.1697 14.0822 14.7678 14.1335H1.33344C0.891562 14.1335 0.533437 13.7754 0.533437 13.3335V12.9947L6.02938 7.75475L7.49875 9.15193C7.53469 9.181 7.57313 9.20693 7.61344 9.22943C7.73094 9.29725 7.86438 9.33318 8 9.3335C8.19406 9.33475 8.3825 9.26881 8.53344 9.14693L9.98406 7.76568L15.4669 12.9897L15.4666 13.3335ZM15.4666 2.66662V12.2532L10.3572 7.39443L15.4666 2.53318C15.4703 2.57787 15.4703 2.62225 15.4666 2.66662Z" fill="#9586E0"/>
</g>
<defs>
<clipPath id="clip0">
<rect width="16" height="16" fill="white"/>
</clipPath>
</defs>
</svg>
