<svg width="16" height="16" viewBox="0 0 16 16" fill="none" xmlns="http://www.w3.org/2000/svg">
<path d="M8 0C4.89844 0 2.375 2.52344 2.375 5.625C2.375 6.67281 2.66531 7.69562 3.21469 8.58281L7.67969 15.7784C7.76531 15.9163 7.91594 16 8.07781 16C8.07906 16 8.08031 16 8.08156 16C8.245 15.9987 8.39594 15.9125 8.48 15.7722L12.8313 8.50688C13.3506 7.63844 13.625 6.64188 13.625 5.625C13.625 2.52344 11.1016 0 8 0ZM12.0272 8.02563L8.07094 14.6309L4.01156 8.08906C3.55437 7.35063 3.30625 6.49844 3.30625 5.625C3.30625 3.04031 5.41531 0.93125 8 0.93125C10.5847 0.93125 12.6906 3.04031 12.6906 5.625C12.6906 6.4725 12.4591 7.30281 12.0272 8.02563Z" fill="#9586E0"/>
<path d="M8 2.8125C6.44906 2.8125 5.1875 4.07406 5.1875 5.625C5.1875 7.16594 6.42875 8.4375 8 8.4375C9.59062 8.4375 10.8125 7.14906 10.8125 5.625C10.8125 4.07406 9.55094 2.8125 8 2.8125ZM8 7.50625C6.96063 7.50625 6.11875 6.66156 6.11875 5.625C6.11875 4.59125 6.96625 3.74375 8 3.74375C9.03375 3.74375 9.87813 4.59125 9.87813 5.625C9.87813 6.64625 9.05562 7.50625 8 7.50625Z" fill="#9586E0"/>
</svg>
