<svg width="12" height="16" viewBox="0 0 12 16" fill="none" xmlns="http://www.w3.org/2000/svg">
<path d="M6 0C2.89844 0 0.375 2.52344 0.375 5.625C0.375 6.67281 0.665313 7.69562 1.21469 8.58281L5.67969 15.7784C5.76531 15.9163 5.91594 16 6.07781 16C6.07906 16 6.08031 16 6.08156 16C6.245 15.9987 6.39594 15.9125 6.48 15.7722L10.8313 8.50688C11.3506 7.63844 11.625 6.64188 11.625 5.625C11.625 2.52344 9.10156 0 6 0ZM10.0272 8.02563L6.07094 14.6309L2.01156 8.08906C1.55437 7.35063 1.30625 6.49844 1.30625 5.625C1.30625 3.04031 3.41531 0.93125 6 0.93125C8.58469 0.93125 10.6906 3.04031 10.6906 5.625C10.6906 6.4725 10.4591 7.30281 10.0272 8.02563Z" fill="#9586E0"/>
</svg>
