<svg width="16" height="16" viewBox="0 0 16 16" fill="none" xmlns="http://www.w3.org/2000/svg">
<g clip-path="url(#clip0)">
<path d="M15.58 12.3431L12.3415 10.1835C11.9306 9.91164 11.3798 10.001 11.0757 10.3891L10.1325 11.602C10.0112 11.762 9.79095 11.8082 9.61535 11.7107L9.436 11.6117C8.8411 11.2874 8.1009 10.8837 6.60988 9.39203C5.11887 7.90039 4.71424 7.15956 4.38992 6.56591L4.29149 6.38656C4.19276 6.21128 4.23807 5.99006 4.39804 5.86758L5.61004 4.9246C5.99779 4.62059 6.08746 4.07005 5.81594 3.65886L3.65659 0.420306C3.3782 0.00162143 2.81985 -0.123984 2.38898 0.135038L1.03482 0.948661C0.609258 1.19862 0.297119 1.60387 0.163703 2.07911C-0.324034 3.85602 0.0427837 6.92242 4.5602 11.4401C8.15339 15.033 10.8286 15.9994 12.6671 15.9994C13.0901 16.0013 13.5116 15.9463 13.9203 15.8357C14.3955 15.7026 14.8008 15.3902 15.0508 14.9646L15.865 13.6111C16.1243 13.1802 15.9987 12.6215 15.58 12.3431ZM15.4057 13.3377L14.5933 14.6918C14.414 14.999 14.1225 15.2249 13.78 15.322C12.1396 15.7723 9.27415 15.3995 4.93733 11.0627C0.600509 6.72588 0.227755 3.86071 0.677997 2.22002C0.775482 1.87727 1.00138 1.58544 1.30915 1.40578L2.66331 0.593404C2.85016 0.480922 3.09262 0.5356 3.21323 0.717135L4.38648 2.47842L5.37101 3.95538C5.48881 4.13379 5.45006 4.37281 5.28197 4.50467L4.06965 5.44765C3.70065 5.72979 3.59535 6.24033 3.82251 6.64527L3.91874 6.82024C4.25962 7.44515 4.68331 8.22252 6.22994 9.76916C7.77658 11.3155 8.55395 11.7392 9.17854 12.08L9.35383 12.1766C9.75877 12.4037 10.2693 12.2984 10.5515 11.9294L11.4944 10.7171C11.6263 10.549 11.8653 10.5103 12.0437 10.6281L15.282 12.7877C15.4638 12.9084 15.5182 13.1508 15.4057 13.3377Z" fill="#9586E0"/>
<path d="M9.06608 2.66805C11.5682 2.67086 13.596 4.69867 13.5988 7.20078C13.5988 7.34795 13.7182 7.4673 13.8653 7.4673C14.0125 7.4673 14.1318 7.34795 14.1318 7.20078C14.1287 4.40434 11.8625 2.13782 9.06608 2.13501C8.91892 2.13501 8.79956 2.25437 8.79956 2.40153C8.79956 2.5487 8.91892 2.66805 9.06608 2.66805Z" fill="#9586E0"/>
<path d="M9.06608 4.26766C10.6852 4.26954 11.9972 5.58152 11.9991 7.20064C11.9991 7.34781 12.1184 7.46716 12.2656 7.46716C12.4127 7.46716 12.5321 7.34781 12.5321 7.20064C12.5299 5.28719 10.9792 3.73681 9.06608 3.73462C8.91892 3.73462 8.79956 3.85398 8.79956 4.00114C8.79956 4.1483 8.91892 4.26766 9.06608 4.26766Z" fill="#9586E0"/>
<path d="M9.06608 5.86727C9.8019 5.86821 10.3984 6.46437 10.3993 7.2005C10.3993 7.34766 10.5187 7.46702 10.6658 7.46702C10.813 7.46702 10.9324 7.34766 10.9324 7.2005C10.9311 6.17035 10.0962 5.33517 9.06608 5.33423C8.91892 5.33423 8.79956 5.45358 8.79956 5.60075C8.79956 5.74791 8.91892 5.86727 9.06608 5.86727Z" fill="#9586E0"/>
</g>
<defs>
<clipPath id="clip0">
<rect width="16" height="16" fill="white"/>
</clipPath>
</defs>
</svg>
