<svg width="442" height="442" viewBox="0 0 442 442" fill="none" xmlns="http://www.w3.org/2000/svg">
<g clip-path="url(#clip0)">
<path d="M52.4833 244.282L54.8014 244.693L75.3988 213.279L58.5095 210.285L52.4833 244.282Z" fill="#ED6E1B"/>
<path d="M129.791 222.921L117.39 220.723L96.7921 252.136L109.193 254.334L129.791 222.921Z" fill="#ED6E1B"/>
<path d="M102.595 218.1L90.1935 215.902L69.5961 247.315L81.9972 249.514L102.595 218.1Z" fill="#ED6E1B"/>
<path d="M146.971 85.33L136.168 92.913L138.97 133.205L149.779 125.626L146.971 85.33Z" fill="#ED6E1B"/>
<path d="M40.1409 160.246C37.0239 162.432 36.2628 166.726 38.4391 169.847L53.6512 191.684L50.9353 152.68L40.1409 160.246Z" fill="#ED6E1B"/>
<path d="M77.7522 176.136L74.9447 135.839L64.1328 143.421L66.9436 183.715L77.7522 176.136Z" fill="#ED6E1B"/>
<path d="M101.761 159.298L98.9528 119.008L88.1414 126.586L90.9527 166.877L101.761 159.298Z" fill="#ED6E1B"/>
<path d="M125.769 142.467L122.962 102.17L112.15 109.749L114.961 150.046L125.769 142.467Z" fill="#ED6E1B"/>
<path d="M197.799 91.9577L194.988 51.6608L184.186 59.2409L186.987 99.5362L197.799 91.9577Z" fill="#ED6E1B"/>
<path d="M221.808 75.1174L219.005 34.8308L208.194 42.4093L210.997 82.6959L221.808 75.1174Z" fill="#ED6E1B"/>
<path d="M77.4404 301.301L69.0038 348.896L130.333 335.222L77.4404 301.301Z" fill="#ED6E1B"/>
<path d="M192.172 128.788L273.763 143.251L284.61 82.0581L247.215 75.4293C246.819 75.3113 246.435 75.1623 246.069 74.9805L234.66 82.9565C233.731 84.3739 232.297 85.384 230.652 85.7876L210.63 99.8413C209.711 101.173 208.343 102.129 206.78 102.532L195.416 110.489L192.172 128.788Z" fill="#191919"/>
<path d="M232.494 29.7793L235.006 65.8586L251.015 54.671L235.186 31.9193C234.491 30.9872 233.562 30.2472 232.494 29.7793Z" fill="#ED6E1B"/>
<path d="M180.645 35.5754L178.766 46.1755L191.21 37.4483L180.645 35.5754Z" fill="#191919"/>
<path d="M156.981 227.741L144.586 225.543L123.991 256.957L136.392 259.156L156.981 227.741Z" fill="#ED6E1B"/>
<path d="M170.979 68.4984L160.177 76.0785L162.979 116.368L173.788 108.789L170.979 68.4984Z" fill="#ED6E1B"/>
<path d="M151.178 261.777L163.588 263.977L184.186 232.563L171.776 230.363L151.178 261.777Z" fill="#ED6E1B"/>
<path d="M280.571 249.648L259.974 281.062L272.375 283.26L292.973 251.847L280.571 249.648Z" fill="#ED6E1B"/>
<path d="M190.784 268.797L211.382 237.384L198.975 235.184L178.377 266.598L190.784 268.797Z" fill="#ED6E1B"/>
<path d="M217.983 273.619L238.578 242.204L226.176 240.006L205.579 271.42L217.983 273.619Z" fill="#ED6E1B"/>
<path d="M232.778 276.241L245.179 278.439L265.777 247.026L253.375 244.828L232.778 276.241Z" fill="#ED6E1B"/>
<path d="M432.215 80.1692L264.954 50.5204L266.243 52.3637C268.419 55.5029 267.655 59.8139 264.532 62.0168L261.728 63.9737L293.821 69.6627C297.578 70.3285 300.079 73.912 299.414 77.6681L286.156 152.459C285.49 156.215 281.909 158.72 278.153 158.054L182.964 141.181C179.208 140.515 176.703 136.931 177.369 133.175L179.394 121.753L163.385 132.94L149.308 212.355L162.906 214.766L172.548 160.374C173.214 156.618 176.798 154.113 180.554 154.779L275.743 171.652C279.499 172.318 282.001 175.901 281.335 179.657L271.693 234.049L285.294 236.46L294.936 182.068C295.601 178.312 299.183 175.807 302.939 176.473L398.128 193.346C401.884 194.012 404.388 197.596 403.723 201.352L390.465 276.143C389.8 279.896 386.216 282.4 382.46 281.735L321.267 270.888L318.856 284.488L393.647 297.746C397.403 298.412 400.987 295.907 401.653 292.151L437.81 88.1751C438.476 84.4191 435.971 80.835 432.215 80.1692ZM408.544 174.153C407.878 177.909 404.294 180.414 400.538 179.748L305.349 162.875C301.593 162.209 299.091 158.626 299.757 154.869L313.014 80.079C313.68 76.3229 317.261 73.8177 321.017 74.4835L416.206 91.3568C419.962 92.0226 422.467 95.6067 421.801 99.3627L408.544 174.153Z" fill="#191919"/>
<path d="M287.17 285.883L304.054 288.875L310.08 254.879L307.767 254.469L287.17 285.883Z" fill="#ED6E1B"/>
<path d="M325.407 89.2898L406.998 103.753L396.151 164.945L314.56 150.482L325.407 89.2898Z" fill="#191919"/>
<path d="M323.678 257.29L378.073 266.932L388.92 205.739L307.329 191.276L298.892 238.871L319.288 242.486C323.044 243.152 325.549 246.736 324.883 250.492L323.678 257.29Z" fill="#191919"/>
<path d="M176.504 217.176L258.095 231.639L266.532 184.044L184.941 169.582L176.504 217.176Z" fill="#191919"/>
<path d="M29.5835 373.467C28.9177 377.223 31.4224 380.807 35.1756 381.472L273.148 423.656C276.904 424.322 280.488 421.817 281.154 418.061L301.643 302.473L50.0728 257.88L29.5835 373.467ZM183.645 295.582L278.834 312.456C282.59 313.121 285.095 316.705 284.429 320.461C283.763 324.218 280.179 326.722 276.423 326.056L181.234 309.183C177.478 308.517 174.976 304.934 175.642 301.178C176.308 297.422 179.889 294.916 183.645 295.582ZM178.824 322.781L274.013 339.654C277.769 340.32 280.274 343.904 279.608 347.657C278.943 351.414 275.359 353.918 271.602 353.252L176.414 336.379C172.657 335.713 170.156 332.13 170.821 328.374C171.487 324.621 175.068 322.115 178.824 322.781ZM174.003 349.977L269.192 366.85C272.948 367.516 275.453 371.1 274.787 374.856C274.122 378.61 270.538 381.114 266.782 380.448L171.593 363.575C167.837 362.909 165.335 359.326 166 355.573C166.666 351.817 170.247 349.311 174.003 349.977ZM169.182 377.173L264.371 394.046C268.127 394.712 270.632 398.296 269.966 402.052C269.301 405.806 265.717 408.31 261.961 407.644L166.772 390.771C163.016 390.105 160.514 386.522 161.179 382.769C161.845 379.013 165.426 376.507 169.182 377.173ZM65.647 288.694C66.0618 286.421 67.588 284.505 69.7093 283.592C71.8222 282.643 74.274 282.84 76.2088 284.112L151.773 332.572C154.091 334.085 155.282 336.834 154.799 339.559C154.315 342.286 152.252 344.459 149.556 345.083L61.9384 364.617C61.0352 364.81 60.1023 364.834 59.1899 364.69C55.4585 363.986 52.9729 360.43 53.5949 356.684L65.647 288.694Z" fill="#ED6E1B"/>
</g>
<defs>
<clipPath id="clip0">
<rect width="381" height="381" fill="white" transform="translate(66.5) rotate(10.0519)"/>
</clipPath>
</defs>
</svg>
