<svg width="97" height="96" viewBox="0 0 97 96" fill="none" xmlns="http://www.w3.org/2000/svg">
<g clip-path="url(#clip0)">
<path d="M77.9195 15.4839H60.8872V18.5806H77.9195V15.4839Z" fill="#3E3A53"/>
<path d="M60.8872 9.29031V12.3871H88.7582V15.4839H81.0162V18.5806H84.113V71.2258H12.8872V18.5806H36.113V15.4839H8.24204V12.3871H36.113V9.29031H5.14526V18.5806H9.79042V74.3226H46.9517V84.4165L40.5755 89.5169C39.7068 90.2121 39.2098 91.248 39.2098 92.3597C39.2098 94.3664 40.8433 96 42.85 96H54.1517C56.1569 96 57.7904 94.3664 57.7904 92.3597C57.7904 91.248 57.2934 90.2121 56.4247 89.5169L50.0485 84.4165V74.3226H87.2098V18.5806H91.8549V9.29031H60.8872ZM54.6936 92.3597C54.6936 92.6601 54.4505 92.9032 54.1502 92.9032H42.8485C42.5496 92.9032 42.3065 92.6601 42.3065 92.3597C42.3065 92.1941 42.3809 92.0377 42.5109 91.9355L48.5001 87.1448L54.4893 91.9355C54.6193 92.0392 54.6936 92.1941 54.6936 92.3597Z" fill="#3E3A53"/>
<path d="M53.6498 68.129H15.479L18.0648 59.0803C18.8808 56.2219 21.304 54.0588 24.2367 53.5711L28.3709 52.8821V51.792C26.3936 50.0253 25.2741 47.5556 25.2741 44.9032V40.2581C25.2741 35.1345 29.4408 30.9677 34.5644 30.9677C39.688 30.9677 43.8547 35.1345 43.8547 40.2581V44.9032C43.8547 47.5556 42.7353 50.0253 40.758 51.792V52.8821L44.8922 53.5711C47.8264 54.0588 50.248 56.2219 51.064 59.0818L53.6498 68.129ZM19.5853 65.0323H49.5435L48.0865 59.9319C47.5988 58.2178 46.1433 56.9203 44.3843 56.6261L37.6612 55.505V50.2916L38.2759 49.8271C39.8537 48.6348 40.758 46.8403 40.758 44.9032V40.2581C40.758 36.8423 37.9802 34.0645 34.5644 34.0645C31.1487 34.0645 28.3709 36.8423 28.3709 40.2581V44.9032C28.3709 46.8403 29.2751 48.6348 30.8529 49.8271L31.4677 50.2916V55.505L24.7446 56.6261C22.9856 56.9187 21.5317 58.2163 21.0424 59.9319L19.5853 65.0323Z" fill="#3E3A53"/>
<path d="M81.0161 37.1613H65.5322V27.871H81.0161V37.1613Z" fill="#9586E0"/>
<path d="M81.0161 51.0968H65.5322V41.8065H81.0161V51.0968Z" fill="#9586E0"/>
<path d="M81.0161 65.0323H65.5322V55.7419H81.0161V65.0323Z" fill="#9586E0"/>
<path d="M62.4355 34.0645V30.9677H59.3387V27.871H56.2419V65.0323H59.3387V61.9355H62.4355V58.8387H59.3387V48H62.4355V44.9032H59.3387V34.0645H62.4355Z" fill="#3E3A53"/>
<path d="M48.4999 27.871C40.8153 27.871 34.5645 21.6201 34.5645 13.9355C34.5645 6.25084 40.8153 0 48.4999 0C56.1846 0 62.4354 6.25084 62.4354 13.9355C62.4354 21.6201 56.1846 27.871 48.4999 27.871Z" fill="#ED6E1B"/>
<path d="M43.8547 23.023V4.84802L57.4852 13.9355L43.8547 23.023ZM46.9515 10.6359V17.2367L51.9017 13.9355L46.9515 10.6359Z" fill="white"/>
</g>
<defs>
<clipPath id="clip0">
<rect width="96" height="96" fill="white" transform="translate(0.5)"/>
</clipPath>
</defs>
</svg>
