<svg width="96" height="96" viewBox="0 0 96 96" fill="none" xmlns="http://www.w3.org/2000/svg">
<path d="M33 94.5C22.248 94.5 13.5 85.752 13.5 75C13.5 64.248 22.248 55.5 33 55.5C43.752 55.5 52.5 64.248 52.5 75C52.5 85.752 43.752 94.5 33 94.5Z" fill="#9586E0"/>
<path d="M9.94209 68.1451L12.6526 66.8566C12.2176 65.9446 11.8441 64.9996 11.5426 64.0471L8.68359 64.9546C9.02709 66.0361 9.45009 67.1101 9.94209 68.1451Z" fill="#3E3A53"/>
<path d="M14.88 39.4845C10.1205 44.244 7.5 50.571 7.5 57.3015C7.5 58.797 7.632 60.2985 7.8945 61.764L10.848 61.236C10.617 59.9445 10.5 58.6215 10.5 57.3015C10.5 51.372 12.8085 45.798 16.992 41.6145L17.037 41.5695L15.9855 40.5L14.88 39.4845Z" fill="#3E3A53"/>
<path d="M34.5 85.5V82.5C36.981 82.5 39 80.481 39 78C39 75.519 36.981 73.5 34.5 73.5H31.5C30.672 73.5 30 72.8265 30 72C30 71.1735 30.672 70.5 31.5 70.5H36V72H39V67.5H34.5V64.5H31.5V67.5C29.019 67.5 27 69.519 27 72C27 74.481 29.019 76.5 31.5 76.5H34.5C35.328 76.5 36 77.1735 36 78C36 78.8265 35.328 79.5 34.5 79.5H30V78H27V82.5H31.5V85.5H34.5Z" fill="#3E3A53"/>
<path d="M40.5479 33.1639L42.6692 31.0426L44.7905 33.1639L42.6692 35.2852L40.5479 33.1639Z" fill="#3E3A53"/>
<path d="M56.4886 47.4121C56.0746 46.4401 55.5901 45.4801 55.0516 44.5636L52.4641 46.0846C52.9381 46.8916 53.3656 47.7346 53.7286 48.5881L56.4886 47.4121Z" fill="#3E3A53"/>
<path d="M44.7896 37.4157L46.9109 35.2944L49.0332 37.4168L46.9119 39.5381L44.7896 37.4157Z" fill="#3E3A53"/>
<path d="M49.0366 41.6445C49.6996 42.312 50.3236 43.023 50.8921 43.758L53.2651 41.922C52.6216 41.0895 51.9151 40.2855 51.1636 39.5295L49.0366 41.6445Z" fill="#3E3A53"/>
<path d="M91.5 34.5001C91.5 38.2966 89.4525 42.1486 85.413 45.9451C79.7655 51.2521 72.411 54.4906 64.398 55.2916C63.915 47.7181 60.765 40.6456 55.362 35.2426L44.121 24.0001L52.5 15.6211V15.0001C52.5 11.6791 50.016 8.86509 46.7205 8.45409L43.9575 8.10909L45.3975 3.42909L36.897 1.30359L33.0705 6.40359L30.69 2.83209L20.538 4.86309L21.636 8.15859L19.2765 8.45409C15.984 8.86509 13.5 11.6791 13.5 15.0001V15.6211L21.879 24.0001L10.638 35.2411C4.7445 41.1331 1.5 48.9691 1.5 57.3016C1.5 67.7491 6.6705 77.4016 15.3405 83.2156C14.607 81.6466 14.0805 79.9666 13.7865 78.2056C7.9125 72.9001 4.5 65.3656 4.5 57.3016C4.5 49.7701 7.4325 42.6886 12.759 37.3621L24.621 25.5001H41.379L53.241 37.3621C58.119 42.2401 60.9645 48.6226 61.407 55.4581C61.098 55.4656 60.7965 55.5001 60.486 55.5001H33C36.8025 55.5001 40.3425 56.6101 43.344 58.5001H55.5V91.5001H43.344C40.341 93.3901 36.801 94.5001 33 94.5001H94.5V34.5001H91.5ZM46.3485 11.4301C47.9505 11.6311 49.2015 12.8731 49.452 14.4256L41.379 22.5001H39.531L43.0635 11.0191L46.3485 11.4301ZM29.3085 6.16809L32.928 11.5966L38.1015 4.69659L41.601 5.57109L36.3915 22.5001H29.58L24.4605 7.13709L29.3085 6.16809ZM19.6515 11.4301L22.6065 11.0611L26.4195 22.5001H24.621L16.5465 14.4256C16.797 12.8746 18.048 11.6311 19.6515 11.4301ZM64.5 91.5001H58.5V58.5001H60.486C61.8375 58.5001 63.1755 58.4326 64.5 58.3066V91.5001ZM73.5 91.5001H67.5V57.9061C69.552 57.5581 71.559 57.0646 73.5 56.4181V91.5001ZM82.5 91.5001H76.5V55.2736C78.6 54.3751 80.6055 53.2936 82.5 52.0426V91.5001ZM91.5 91.5001H85.5V49.8391C86.172 49.2916 86.8335 48.7276 87.468 48.1306C89.1 46.5961 90.4335 45.0361 91.5 43.4581V91.5001Z" fill="#3E3A53"/>
<path d="M82.5 9.62103V27H85.5V9.62103L88.9395 13.0605L91.0605 10.9395L84 3.87903L76.9395 10.9395L79.0605 13.0605L82.5 9.62103Z" fill="#ED6E1B"/>
<path d="M69 20.121V37.5H72V20.121L75.4395 23.5605L77.5605 21.4395L70.5 14.379L63.4395 21.4395L65.5605 23.5605L69 20.121Z" fill="#ED6E1B"/>
</svg>
