<svg width="96" height="96" viewBox="0 0 96 96" fill="none" xmlns="http://www.w3.org/2000/svg">
<path d="M61.3831 28.7682L57.4456 25.6207L54.0606 28.3279H50.3606V1.57379H72.3934V28.3279H68.6918L65.3145 25.6222L61.3831 28.7682Z" fill="#ED6E1B"/>
<path d="M68.6933 53.5082L65.3083 56.2154L61.3708 53.0679L57.4379 56.2139L54.0622 53.5082H50.3606V66.0984H51.9344C54.5425 66.0984 56.6557 68.2116 56.6557 70.8197H72.3934V53.5082H68.6933Z" fill="#ED6E1B"/>
<path d="M89.7047 50.3607H64.5244V34.623H89.7047V50.3607Z" fill="#ED6E1B"/>
<path d="M96 0H26.7541V59.8302C26.5727 59.8256 26.3952 59.8033 26.2146 59.8033C22.1181 59.8033 18.1913 61.062 14.8593 63.4419L8.52815 67.9649L10.357 70.5254L16.6882 66.0023C21.3012 62.7088 27.4656 62.0425 32.6695 64.2741L36.9067 66.0907C39.3535 67.1404 41.9423 67.6721 44.605 67.6721H51.9344C53.6703 67.6721 55.0819 69.0838 55.0819 70.8197C55.0819 72.5556 53.6703 73.9672 51.9344 73.9672H25.1803V77.1148H51.9344C55.4062 77.1148 58.2295 74.2915 58.2295 70.8197H74.8893L66.448 79.261C63.7723 81.9352 60.2159 83.4098 56.4321 83.4098H25.503C21.8722 83.4098 18.3926 84.5241 15.4403 86.6342L8.52661 91.573L10.3555 94.1335L17.2692 89.1947C19.6859 87.4688 22.5315 86.5574 25.503 86.5574H56.4306C61.0543 86.5574 65.4029 84.7554 68.6711 81.4864L78.1706 71.9877C78.5264 71.6335 78.8268 71.2369 79.0973 70.8197H96V0ZM92.8524 3.14754V12.5902H29.9016V3.14754H92.8524ZM57.3542 67.6721C56.2623 65.7994 54.2543 64.5246 51.9344 64.5246H44.605C42.3719 64.5246 40.1987 64.0789 38.1485 63.1998L33.9113 61.3832C32.6134 60.8261 31.271 60.4265 29.9016 60.1637V15.7377H92.8524V67.6721H57.3542Z" fill="#3E3A53"/>
<path d="M70.8196 40.918H83.4097V44.0656H70.8196V40.918Z" fill="white"/>
<path d="M11.0164 96H0V64.5246H11.0164V96Z" fill="#9586E0"/>
</svg>
